# xmcd CD database file
#
# Track frame offsets:
#	150
#	15442
#	36212
#	57055
#	80812
#	121147
#	133177
#	146602
#	164200
#	176160
#	193083
#	204315
#	211975
#	226870
#	242790
#	259338
#	273058
#	290905
#	303835
#	323085
#
# Disc length: 4458 seconds
#
# Revision: 0
# Processed by: cddbd v1.5.2PL0 Copyright (c) Steve Scherf et al.
# Submitted via: CDex 1.70beta2
#
DISCID=2a116814
DTITLE=Louis Armstrong - The legendary a when the saints
DYEAR=1900
DGENRE=Jazz
TTITLE0=Mack the knife
TTITLE1=Indiana
TTITLE2=Ain't misbehavn
TTITLE3=Rocking chair
TTITLE4=St Louis blues
TTITLE5=Tiger rag
TTITLE6=Honeysuckle rose
TTITLE7=All of me
TTITLE8=When it's sleepy the down south
TTITLE9=Indiana
TTITLE10=Hello, Dolly!
TTITLE11=St. James infirmary
TTITLE12=Blueberry hill
TTITLE13=Mack the knife
TTITLE14=Muskat ramble
TTITLE15=Gif me a kiss to build dream on
TTITLE16=Cabaret
TTITLE17=That's mysesire
TTITLE18=Ole miss
TTITLE19=When the saints fo marchin'in
EXTD=
EXTT0=
EXTT1=
EXTT2=
EXTT3=
EXTT4=
EXTT5=
EXTT6=
EXTT7=
EXTT8=
EXTT9=
EXTT10=
EXTT11=
EXTT12=
EXTT13=
EXTT14=
EXTT15=
EXTT16=
EXTT17=
EXTT18=
EXTT19=
PLAYORDER=
